<?xml version="1.0" standalone="no"?>
<!DOCTYPE svg PUBLIC "-//W3C//DTD SVG 20010904//EN"
 "http://www.w3.org/TR/2001/REC-SVG-20010904/DTD/svg10.dtd">
<svg version="1.0" xmlns="http://www.w3.org/2000/svg"
 width="200.000000pt" height="200.000000pt" viewBox="0 0 200.000000 200.000000"
 preserveAspectRatio="xMidYMid meet">
<metadata>
Created by potrace 1.14, written by Peter Selinger 2001-2017
</metadata>
<g transform="translate(0.000000,200.000000) scale(0.100000,-0.100000)"
fill="#000000" stroke="none">
<path d="M278 1986 c-15 -8 -29 -12 -32 -8 -3 3 -6 0 -6 -6 0 -7 -7 -12 -15
-12 -36 0 -156 -124 -194 -198 l-31 -61 0 -683 c0 -739 1 -748 55 -829 14 -21
30 -39 37 -39 6 0 9 -3 5 -6 -9 -9 91 -87 150 -118 l52 -26 698 1 698 0 56 27
c109 52 200 149 233 246 14 44 16 125 16 735 l0 685 -35 70 c-43 87 -46 91
-116 148 -34 27 -82 54 -120 67 -62 21 -75 21 -743 21 -564 0 -686 -3 -708
-14z"/>
</g>
</svg>
